<svg width="68" height="60" viewBox="0 0 68 60" fill="none" xmlns="http://www.w3.org/2000/svg">
<g clip-path="url(#clip0_113_110)">
<path d="M62.1739 0H5.65217C2.5317 0 0 2.51953 0 5.625V43.125C0 46.2305 2.5317 48.75 5.65217 48.75H28.2609L26.3768 54.375H17.8986C16.3442 54.375 15.0725 55.6406 15.0725 57.1875C15.0725 58.7344 16.3442 60 17.8986 60H49.9275C51.4878 60 52.7536 58.7402 52.7536 57.1875C52.7536 55.6348 51.4878 54.375 49.9275 54.375H41.4493L39.5652 48.75H62.1739C65.2944 48.75 67.8261 46.2305 67.8261 43.125V5.625C67.8261 2.51953 65.2944 0 62.1739 0ZM60.2899 41.25H7.53623V7.5H60.2899V41.25Z" fill="#F8FAFC"/>
</g>
<defs>
<clipPath id="clip0_113_110">
<rect width="67.8261" height="60" fill="white"/>
</clipPath>
</defs>
</svg>
