<svg width="60" height="60" viewBox="0 0 60 60" fill="none" xmlns="http://www.w3.org/2000/svg">
<path d="M18.75 48.75H11.25C9.1793 48.75 7.5 47.0707 7.5 45V15C7.5 12.9293 9.1793 11.25 11.25 11.25H18.75C20.8207 11.25 22.5 9.5707 22.5 7.5C22.5 5.4293 20.8242 3.75 18.75 3.75H11.25C5.03672 3.75 0 8.78672 0 15V45C0 51.2133 5.03672 56.25 11.25 56.25H18.75C20.8207 56.25 22.5 54.5707 22.5 52.5C22.5 50.4293 20.8242 48.75 18.75 48.75ZM58.8984 27.3516L43.8984 12.3516C42.4324 10.8855 40.0594 10.8879 38.5957 12.3516C37.1309 13.8164 37.1309 16.1895 38.5957 17.6543L47.2031 26.25H22.5C20.4258 26.25 18.75 27.9258 18.75 30C18.75 32.0742 20.427 33.75 22.5 33.75H47.2031L38.6039 42.3492C37.1391 43.8141 37.1391 46.1871 38.6039 47.652C40.0688 49.1168 42.4418 49.1168 43.9066 47.652L58.9066 32.652C60.3633 31.1836 60.3633 28.8164 58.8984 27.3516Z" fill="#F8FAFC"/>
</svg>
