<svg width="60" height="60" viewBox="0 0 60 60" fill="none" xmlns="http://www.w3.org/2000/svg">
<path d="M58.1133 19.5234C58.5 20.5313 58.1719 21.668 57.375 22.4062L52.3008 27.0234C52.4297 27.9961 52.5 28.9922 52.5 30C52.5 31.0078 52.4297 32.0039 52.3008 32.9766L57.375 37.5937C58.1719 38.332 58.5 39.4687 58.1133 40.4766C57.5977 41.8711 56.9766 43.2188 56.2734 44.4961L55.7227 45.4453C54.9492 46.7344 54.082 47.9531 53.1328 49.1133C52.4297 49.9453 51.293 50.2383 50.2617 49.9102L43.7344 47.8242C42.1641 49.0313 40.3242 50.0391 38.5781 50.8125L37.1133 57.5039C36.8789 58.5586 36.0586 59.3086 34.9805 59.5898C33.3633 59.8594 31.6992 60 29.8945 60C28.3008 60 26.6367 59.8594 25.0195 59.5898C23.9414 59.3086 23.1211 58.5586 22.8867 57.5039L21.4219 50.8125C19.5703 50.0391 17.8359 49.0313 16.2656 47.8242L9.74297 49.9102C8.70703 50.2383 7.56445 49.9453 6.8707 49.1133C5.92031 47.9531 5.05312 46.7344 4.27968 45.4453L3.73125 44.4961C3.01992 43.2188 2.40117 41.8711 1.88203 40.4766C1.50234 39.4687 1.82226 38.332 2.62617 37.5937L7.6957 32.9766C7.56679 32.0039 7.5 31.0078 7.5 30C7.5 28.9922 7.56679 27.9961 7.6957 27.0234L2.62617 22.4062C1.82226 21.668 1.50234 20.543 1.88203 19.5234C2.40117 18.1289 3.02109 16.7813 3.73125 15.5039L4.27851 14.5547C5.05312 13.2656 5.92031 12.0469 6.8707 10.8926C7.56445 10.0547 8.70703 9.76406 9.74297 10.0945L16.2656 12.1758C17.8359 10.9641 19.5703 9.95625 21.4219 9.19102L22.8867 2.49961C23.1211 1.43555 23.9414 0.590625 25.0195 0.411328C26.6367 0.140742 28.3008 0 30 0C31.6992 0 33.3633 0.140742 34.9805 0.411328C36.0586 0.590625 36.8789 1.43555 37.1133 2.49961L38.5781 9.19102C40.3242 9.95625 42.1641 10.9641 43.7344 12.1758L50.2617 10.0945C51.293 9.76406 52.4297 10.0547 53.1328 10.8926C54.082 12.0469 54.9492 13.2656 55.7227 14.5547L56.2734 15.5039C56.9766 16.7813 57.5977 18.1289 58.1133 19.5234ZM30 39.375C35.1797 39.375 39.375 35.1797 39.375 29.8945C39.375 24.8203 35.1797 20.5195 30 20.5195C24.8203 20.5195 20.625 24.8203 20.625 29.8945C20.625 35.1797 24.8203 39.375 30 39.375Z" fill="#F8FAFC"/>
</svg>
