<svg width="60" height="60" viewBox="0 0 60 60" fill="none" xmlns="http://www.w3.org/2000/svg">
<path d="M1.875 11.25C1.875 8.14336 4.39336 5.625 7.5 5.625C10.6066 5.625 13.125 8.14336 13.125 11.25C13.125 14.3555 10.6066 16.875 7.5 16.875C4.39336 16.875 1.875 14.3555 1.875 11.25ZM56.25 7.5C58.3242 7.5 60 9.1793 60 11.25C60 13.3242 58.3242 15 56.25 15H22.5C20.4258 15 18.75 13.3242 18.75 11.25C18.75 9.1793 20.4258 7.5 22.5 7.5H56.25ZM56.25 26.25C58.3242 26.25 60 27.9258 60 30C60 32.0742 58.3242 33.75 56.25 33.75H22.5C20.4258 33.75 18.75 32.0742 18.75 30C18.75 27.9258 20.4258 26.25 22.5 26.25H56.25ZM56.25 45C58.3242 45 60 46.6758 60 48.75C60 50.8242 58.3242 52.5 56.25 52.5H22.5C20.4258 52.5 18.75 50.8242 18.75 48.75C18.75 46.6758 20.4258 45 22.5 45H56.25ZM1.875 48.75C1.875 45.6445 4.39336 43.125 7.5 43.125C10.6066 43.125 13.125 45.6445 13.125 48.75C13.125 51.8555 10.6066 54.375 7.5 54.375C4.39336 54.375 1.875 51.8555 1.875 48.75ZM13.125 30C13.125 33.1055 10.6066 35.625 7.5 35.625C4.39336 35.625 1.875 33.1055 1.875 30C1.875 26.8945 4.39336 24.375 7.5 24.375C10.6066 24.375 13.125 26.8945 13.125 30Z" fill="#F8FAFC"/>
</svg>
